<svg width="100%" viewBox="0 0 100 100" xmlns="http://www.w3.org/2000/svg" role="img" shape-rendering="geometricPrecision"><title>compass node</title><polygon points="50.00,3.00 90.70,26.50 90.70,73.50 50.00,97.00 9.30,73.50 9.30,26.50" fill="#0d1117"/><polygon points="50.00,3.00 90.70,26.50 90.70,73.50 50.00,97.00 9.30,73.50 9.30,26.50" fill="none" stroke="#3585cc" stroke-width="2.5" stroke-linejoin="round"/><polygon points="53.00,45.00 54.50,32.00 50.00,17.00 45.50,32.00 47.00,45.00" fill="none" stroke="#4ECDC4" stroke-width="1.5" stroke-linejoin="round" opacity="0.55"/><polygon points="55.00,50.00 55.00,53.00 68.00,54.50 83.00,50.00" fill="#5aa6e6"/><polygon points="55.00,50.00 55.00,47.00 68.00,45.50 83.00,50.00" fill="#3585cc"/><polygon points="47.00,55.00 45.50,68.00 50.00,83.00 54.50,68.00 53.00,55.00" fill="none" stroke="#4ECDC4" stroke-width="1.5" stroke-linejoin="round" opacity="0.55"/><polygon points="45.00,47.00 32.00,45.50 17.00,50.00 32.00,54.50 45.00,53.00" fill="none" stroke="#5aa6e6" stroke-width="1.5" stroke-linejoin="round" opacity="0.55"/><polygon points="50.00,39.50 59.09,44.75 59.09,55.25 50.00,60.50 40.91,55.25 40.91,44.75" fill="#0d1117"/><polygon points="50.00,39.50 59.09,44.75 59.09,55.25 50.00,60.50 40.91,55.25 40.91,44.75" fill="none" stroke="#3585cc" stroke-width="1.6" stroke-linejoin="round"/></svg>