<svg width="100%" viewBox="0 0 680 470" xmlns="http://www.w3.org/2000/svg" role="img"><title>Healthcare Uncharted Atlas core</title>
<defs><filter id="g" x="-70%" y="-70%" width="240%" height="240%"><feGaussianBlur stdDeviation="4.5" result="b"/><feMerge><feMergeNode in="b"/><feMergeNode in="SourceGraphic"/></feMerge></filter></defs>
<rect x="20" y="14" width="640" height="442" rx="16" fill="#0d1117"/>
<polygon points="120,60 150,60 158,68" fill="none" stroke="#2f6aa8" stroke-width="1.5" opacity="0.5"/>
<polygon points="560,420 530,420 522,412" fill="none" stroke="#1f5e63" stroke-width="1.5" opacity="0.5"/>
<polyline points="60,180 60,120 110,120" fill="none" stroke="#1f5e63" stroke-width="1.5" opacity="0.4"/>
<polyline points="620,300 620,360 570,360" fill="none" stroke="#2f6aa8" stroke-width="1.5" opacity="0.4"/>
<polygon points="612,150 632,162 632,185 612,197 592,185 592,162" fill="none" stroke="#2f6aa8" stroke-width="1.5" opacity="0.5"/>
<polygon points="340.0,36.0 497.6,127.0 497.6,309.0 340.0,400.0 182.4,309.0 182.4,127.0" fill="none" stroke="#3585cc" stroke-width="2.5" opacity="0.85" filter="url(#g)"/>
<circle cx="340" cy="218" r="115" fill="none" stroke="#4ecdc4" stroke-width="2" opacity="0.9" filter="url(#g)"/>
<line x1="446.0" y1="218.0" x2="455.0" y2="218.0" stroke="#4ecdc4" stroke-width="2.0" opacity="0.9"/>
<line x1="449.3" y1="198.7" x2="453.3" y2="198.0" stroke="#4ecdc4" stroke-width="1.0" opacity="0.4"/>
<line x1="444.3" y1="180.0" x2="448.1" y2="178.7" stroke="#4ecdc4" stroke-width="1.0" opacity="0.4"/>
<line x1="434.4" y1="163.5" x2="439.6" y2="160.5" stroke="#4ecdc4" stroke-width="1.5" opacity="0.6"/>
<line x1="425.0" y1="146.7" x2="428.1" y2="144.1" stroke="#4ecdc4" stroke-width="1.0" opacity="0.4"/>
<line x1="411.3" y1="133.0" x2="413.9" y2="129.9" stroke="#4ecdc4" stroke-width="1.0" opacity="0.4"/>
<line x1="394.5" y1="123.6" x2="397.5" y2="118.4" stroke="#4ecdc4" stroke-width="1.5" opacity="0.6"/>
<line x1="378.0" y1="113.7" x2="379.3" y2="109.9" stroke="#4ecdc4" stroke-width="1.0" opacity="0.4"/>
<line x1="359.3" y1="108.7" x2="360.0" y2="104.7" stroke="#4ecdc4" stroke-width="1.0" opacity="0.4"/>
<line x1="340.0" y1="112.0" x2="340.0" y2="103.0" stroke="#4ecdc4" stroke-width="2.0" opacity="0.9"/>
<line x1="320.7" y1="108.7" x2="320.0" y2="104.7" stroke="#4ecdc4" stroke-width="1.0" opacity="0.4"/>
<line x1="302.0" y1="113.7" x2="300.7" y2="109.9" stroke="#4ecdc4" stroke-width="1.0" opacity="0.4"/>
<line x1="285.5" y1="123.6" x2="282.5" y2="118.4" stroke="#4ecdc4" stroke-width="1.5" opacity="0.6"/>
<line x1="268.7" y1="133.0" x2="266.1" y2="129.9" stroke="#4ecdc4" stroke-width="1.0" opacity="0.4"/>
<line x1="255.0" y1="146.7" x2="251.9" y2="144.1" stroke="#4ecdc4" stroke-width="1.0" opacity="0.4"/>
<line x1="245.6" y1="163.5" x2="240.4" y2="160.5" stroke="#4ecdc4" stroke-width="1.5" opacity="0.6"/>
<line x1="235.7" y1="180.0" x2="231.9" y2="178.7" stroke="#4ecdc4" stroke-width="1.0" opacity="0.4"/>
<line x1="230.7" y1="198.7" x2="226.7" y2="198.0" stroke="#4ecdc4" stroke-width="1.0" opacity="0.4"/>
<line x1="234.0" y1="218.0" x2="225.0" y2="218.0" stroke="#4ecdc4" stroke-width="2.0" opacity="0.9"/>
<line x1="230.7" y1="237.3" x2="226.7" y2="238.0" stroke="#4ecdc4" stroke-width="1.0" opacity="0.4"/>
<line x1="235.7" y1="256.0" x2="231.9" y2="257.3" stroke="#4ecdc4" stroke-width="1.0" opacity="0.4"/>
<line x1="245.6" y1="272.5" x2="240.4" y2="275.5" stroke="#4ecdc4" stroke-width="1.5" opacity="0.6"/>
<line x1="255.0" y1="289.3" x2="251.9" y2="291.9" stroke="#4ecdc4" stroke-width="1.0" opacity="0.4"/>
<line x1="268.7" y1="303.0" x2="266.1" y2="306.1" stroke="#4ecdc4" stroke-width="1.0" opacity="0.4"/>
<line x1="285.5" y1="312.4" x2="282.5" y2="317.6" stroke="#4ecdc4" stroke-width="1.5" opacity="0.6"/>
<line x1="302.0" y1="322.3" x2="300.7" y2="326.1" stroke="#4ecdc4" stroke-width="1.0" opacity="0.4"/>
<line x1="320.7" y1="327.3" x2="320.0" y2="331.3" stroke="#4ecdc4" stroke-width="1.0" opacity="0.4"/>
<line x1="340.0" y1="324.0" x2="340.0" y2="333.0" stroke="#4ecdc4" stroke-width="2.0" opacity="0.9"/>
<line x1="359.3" y1="327.3" x2="360.0" y2="331.3" stroke="#4ecdc4" stroke-width="1.0" opacity="0.4"/>
<line x1="378.0" y1="322.3" x2="379.3" y2="326.1" stroke="#4ecdc4" stroke-width="1.0" opacity="0.4"/>
<line x1="394.5" y1="312.4" x2="397.5" y2="317.6" stroke="#4ecdc4" stroke-width="1.5" opacity="0.6"/>
<line x1="411.3" y1="303.0" x2="413.9" y2="306.1" stroke="#4ecdc4" stroke-width="1.0" opacity="0.4"/>
<line x1="425.0" y1="289.3" x2="428.1" y2="291.9" stroke="#4ecdc4" stroke-width="1.0" opacity="0.4"/>
<line x1="434.4" y1="272.5" x2="439.6" y2="275.5" stroke="#4ecdc4" stroke-width="1.5" opacity="0.6"/>
<line x1="444.3" y1="256.0" x2="448.1" y2="257.3" stroke="#4ecdc4" stroke-width="1.0" opacity="0.4"/>
<line x1="449.3" y1="237.3" x2="453.3" y2="238.0" stroke="#4ecdc4" stroke-width="1.0" opacity="0.4"/>
<polygon points="340.0,203.0 350.0,203.0 355.0,162.0 340.0,118.0" fill="#7ff0e6" filter="url(#g)"/><polygon points="340.0,203.0 330.0,203.0 325.0,162.0 340.0,118.0" fill="#3fa9a2"/>
<polygon points="355.0,218.0 355.0,228.0 394.0,233.0 440.0,218.0" fill="#5aa6e6" filter="url(#g)"/><polygon points="355.0,218.0 355.0,208.0 394.0,203.0 440.0,218.0" fill="#3585cc"/>
<polygon points="340.0,233.0 330.0,233.0 325.0,274.0 340.0,318.0" fill="#7ff0e6" filter="url(#g)"/><polygon points="340.0,233.0 350.0,233.0 355.0,274.0 340.0,318.0" fill="#3fa9a2"/>
<polygon points="325.0,218.0 325.0,208.0 286.0,203.0 240.0,218.0" fill="#5aa6e6" filter="url(#g)"/><polygon points="325.0,218.0 325.0,228.0 286.0,233.0 240.0,218.0" fill="#3585cc"/>
<text x="340" y="86" text-anchor="middle" fill="#7ff0e6" style="font-family:Poppins,sans-serif;font-size:21px;font-weight:bold" dominant-baseline="middle">N</text>
<text x="340" y="350" text-anchor="middle" fill="#4ecdc4" style="font-family:Poppins,sans-serif;font-size:21px;font-weight:bold" dominant-baseline="middle">S</text>
<text x="474" y="218" text-anchor="middle" fill="#5aa6e6" style="font-family:Poppins,sans-serif;font-size:21px;font-weight:bold" dominant-baseline="middle">E</text>
<text x="206" y="218" text-anchor="middle" fill="#5aa6e6" style="font-family:Poppins,sans-serif;font-size:21px;font-weight:bold" dominant-baseline="middle">W</text>
<polygon points="340.0,186.0 367.7,202.0 367.7,234.0 340.0,250.0 312.3,234.0 312.3,202.0" fill="#0d1117"/>
<circle cx="340" cy="218" r="27" fill="#3585cc" opacity="0.20" filter="url(#g)"/>
<polygon points="340.0,186.0 367.7,202.0 367.7,234.0 340.0,250.0 312.3,234.0 312.3,202.0" fill="none" stroke="#3585cc" stroke-width="2.5" opacity="0.9" stroke-linejoin="round" filter="url(#g)"/>
<g transform="translate(318.75,203.72) scale(0.34)"><path d="M0.00,4.00 Q0.00,0.00 4.00,0.00 L15.00,0.00 Q19.00,0.00 19.00,4.00 L19.00,23.00 Q19.00,27.00 15.70,29.26 L3.30,37.74 Q0.00,40.00 0.00,36.00 Z" fill="#3585cc"/><path d="M0.00,50.00 Q0.00,46.00 3.38,43.86 L15.62,36.14 Q19.00,34.00 23.00,34.00 L46.00,34.00 Q50.00,34.00 50.00,38.00 L50.00,49.00 Q50.00,53.00 46.00,53.00 L23.00,53.00 Q19.00,53.00 19.00,57.00 L19.00,80.00 Q19.00,84.00 15.00,84.00 L4.00,84.00 Q0.00,84.00 0.00,80.00 Z" fill="#3585cc"/><path d="M57,1.5 Q57,-2.5 61,-2.5 L72,-2.5 Q76,-2.5 76,1.5 L76,52.5 Q76,67.5 91,67.5 Q106,67.5 106,52.5 L106,1.5 Q106,-2.5 110,-2.5 L121,-2.5 Q125,-2.5 125,1.5 L125,52.5 Q125,86.5 91,86.5 Q57,86.5 57,52.5 Z" fill="#4ecdc4"/></g>
</svg>