<svg width="100%" viewBox="0 0 958 200" xmlns="http://www.w3.org/2000/svg" role="img"><title>Healthcare Uncharted</title>
<polygon points="110.0,20.0 179.3,60.0 179.3,140.0 110.0,180.0 40.7,140.0 40.7,60.0" fill="none" stroke="#1B5FA8" stroke-width="8" stroke-linejoin="round"/>
<g transform="translate(68.33,72.00) scale(0.6666666666666666)"><path d="M0.00,4.00 Q0.00,0.00 4.00,0.00 L15.00,0.00 Q19.00,0.00 19.00,4.00 L19.00,23.00 Q19.00,27.00 15.70,29.26 L3.30,37.74 Q0.00,40.00 0.00,36.00 Z" fill="#1B5FA8"/><path d="M0.00,50.00 Q0.00,46.00 3.38,43.86 L15.62,36.14 Q19.00,34.00 23.00,34.00 L46.00,34.00 Q50.00,34.00 50.00,38.00 L50.00,49.00 Q50.00,53.00 46.00,53.00 L23.00,53.00 Q19.00,53.00 19.00,57.00 L19.00,80.00 Q19.00,84.00 15.00,84.00 L4.00,84.00 Q0.00,84.00 0.00,80.00 Z" fill="#1B5FA8"/><path d="M57,1.5 Q57,-2.5 61,-2.5 L72,-2.5 Q76,-2.5 76,1.5 L76,52.5 Q76,67.5 91,67.5 Q106,67.5 106,52.5 L106,1.5 Q106,-2.5 110,-2.5 L121,-2.5 Q125,-2.5 125,1.5 L125,52.5 Q125,86.5 91,86.5 Q57,86.5 57,52.5 Z" fill="#4ECDC4"/></g>
<g fill="#1B5FA8" transform="translate(222.0,124)"><path d="M41.54 -43.53 L41.54 -0.00 L30.94 -0.00 L30.94 -17.92 L14.44 -17.92 L14.44 -0.00 L3.85 -0.00 L3.85 -43.53 L14.44 -43.53 L14.44 -26.48 L30.94 -26.48 L30.94 -43.53 L41.54 -43.53 Z M81.78 -17.85 Q81.78 -16.37 81.59 -14.75 L57.60 -14.75 Q57.85 -11.53 59.67 -9.82 Q61.50 -8.12 64.17 -8.12 Q68.14 -8.12 69.69 -11.47 L80.97 -11.47 Q80.10 -8.06 77.83 -5.33 Q75.58 -2.61 72.17 -1.06 Q68.76 0.49 64.54 0.49 Q59.46 0.49 55.48 -1.68 Q51.52 -3.85 49.28 -7.88 Q47.06 -11.91 47.06 -17.30 Q47.06 -22.69 49.26 -26.72 Q51.46 -30.75 55.43 -32.92 Q59.40 -35.09 64.54 -35.09 Q69.56 -35.09 73.46 -32.98 Q77.38 -30.87 79.58 -26.97 Q81.78 -23.07 81.78 -17.85 Z M70.93 -20.64 Q70.93 -23.38 69.07 -24.98 Q67.21 -26.60 64.42 -26.60 Q61.75 -26.60 59.92 -25.05 Q58.09 -23.50 57.66 -20.64 L70.93 -20.64 Z M85.25 -17.36 Q85.25 -22.69 87.26 -26.72 Q89.28 -30.75 92.75 -32.92 Q96.22 -35.09 100.51 -35.09 Q104.16 -35.09 106.92 -33.60 Q109.68 -32.11 111.16 -29.70 L111.16 -34.59 L121.77 -34.59 L121.77 -0.00 L111.16 -0.00 L111.16 -4.90 Q109.61 -2.48 106.85 -0.99 Q104.10 0.49 100.44 0.49 Q96.22 0.49 92.75 -1.71 Q89.28 -3.90 87.26 -7.96 Q85.25 -12.03 85.25 -17.36 Z M111.16 -17.30 Q111.16 -21.26 108.96 -23.56 Q106.76 -25.86 103.61 -25.86 Q100.44 -25.86 98.24 -23.59 Q96.04 -21.33 96.04 -17.36 Q96.04 -13.39 98.24 -11.06 Q100.44 -8.74 103.61 -8.74 Q106.76 -8.74 108.96 -11.03 Q111.16 -13.33 111.16 -17.30 Z M140.06 -45.88 L140.06 -0.00 L129.46 -0.00 L129.46 -45.88 L140.06 -45.88 Z M167.03 -8.99 L167.03 -0.00 L161.63 -0.00 Q155.87 -0.00 152.64 -2.82 Q149.42 -5.64 149.42 -12.03 L149.42 -25.79 L145.20 -25.79 L145.20 -34.59 L149.42 -34.59 L149.42 -43.03 L160.02 -43.03 L160.02 -34.59 L166.97 -34.59 L166.97 -25.79 L160.02 -25.79 L160.02 -11.91 Q160.02 -10.36 160.77 -9.67 Q161.51 -8.99 163.25 -8.99 L167.03 -8.99 Z M194.18 -34.97 Q200.13 -34.97 203.73 -31.03 Q207.33 -27.10 207.33 -20.21 L207.33 -0.00 L196.79 -0.00 L196.79 -18.78 Q196.79 -22.26 194.99 -24.18 Q193.20 -26.10 190.15 -26.10 Q187.11 -26.10 185.31 -24.18 Q183.52 -22.26 183.52 -18.78 L183.52 -0.00 L172.92 -0.00 L172.92 -45.88 L183.52 -45.88 L183.52 -29.94 Q185.14 -32.24 187.93 -33.61 Q190.72 -34.97 194.18 -34.97 Z M212.60 -17.30 Q212.60 -22.69 214.80 -26.72 Q217.00 -30.75 220.94 -32.92 Q224.87 -35.09 229.96 -35.09 Q236.47 -35.09 240.84 -31.68 Q245.21 -28.27 246.57 -22.07 L235.29 -22.07 Q233.86 -26.04 229.77 -26.04 Q226.86 -26.04 225.12 -23.77 Q223.39 -21.52 223.39 -17.30 Q223.39 -13.08 225.12 -10.81 Q226.86 -8.55 229.77 -8.55 Q233.86 -8.55 235.29 -12.53 L246.57 -12.53 Q245.21 -6.45 240.81 -2.97 Q236.41 0.49 229.96 0.49 Q224.87 0.49 220.94 -1.68 Q217.00 -3.85 214.80 -7.88 Q212.60 -11.91 212.60 -17.30 Z M250.11 -17.36 Q250.11 -22.69 252.12 -26.72 Q254.14 -30.75 257.60 -32.92 Q261.08 -35.09 265.36 -35.09 Q269.02 -35.09 271.78 -33.60 Q274.54 -32.11 276.02 -29.70 L276.02 -34.59 L286.63 -34.59 L286.63 -0.00 L276.02 -0.00 L276.02 -4.90 Q274.47 -2.48 271.71 -0.99 Q268.96 0.49 265.30 0.49 Q261.08 0.49 257.60 -1.71 Q254.14 -3.90 252.12 -7.96 Q250.11 -12.03 250.11 -17.36 Z M276.02 -17.30 Q276.02 -21.26 273.82 -23.56 Q271.62 -25.86 268.46 -25.86 Q265.30 -25.86 263.10 -23.59 Q260.90 -21.33 260.90 -17.36 Q260.90 -13.39 263.10 -11.06 Q265.30 -8.74 268.46 -8.74 Q271.62 -8.74 273.82 -11.03 Q276.02 -13.33 276.02 -17.30 Z M304.91 -28.83 Q306.77 -31.68 309.56 -33.33 Q312.35 -34.97 315.76 -34.97 L315.76 -23.74 L312.85 -23.74 Q308.89 -23.74 306.90 -22.04 Q304.91 -20.33 304.91 -16.06 L304.91 -0.00 L294.32 -0.00 L294.32 -34.59 L304.91 -34.59 L304.91 -28.83 Z M353.46 -17.85 Q353.46 -16.37 353.28 -14.75 L329.28 -14.75 Q329.53 -11.53 331.35 -9.82 Q333.18 -8.12 335.86 -8.12 Q339.82 -8.12 341.37 -11.47 L352.66 -11.47 Q351.78 -8.06 349.52 -5.33 Q347.26 -2.61 343.85 -1.06 Q340.44 0.49 336.23 0.49 Q331.14 0.49 327.17 -1.68 Q323.21 -3.85 320.97 -7.88 Q318.74 -11.91 318.74 -17.30 Q318.74 -22.69 320.94 -26.72 Q323.15 -30.75 327.11 -32.92 Q331.08 -35.09 336.23 -35.09 Q341.24 -35.09 345.15 -32.98 Q349.06 -30.87 351.26 -26.97 Q353.46 -23.07 353.46 -17.85 Z M342.61 -20.64 Q342.61 -23.38 340.75 -24.98 Q338.89 -26.60 336.10 -26.60 Q333.44 -26.60 331.61 -25.05 Q329.77 -23.50 329.35 -20.64 L342.61 -20.64 Z"/></g>
<g fill="#2FA79E" transform="translate(592.7,124)"><path d="M14.26 -43.53 L14.26 -17.49 Q14.26 -13.58 16.18 -11.47 Q18.11 -9.36 21.83 -9.36 Q25.55 -9.36 27.52 -11.47 Q29.51 -13.58 29.51 -17.49 L29.51 -43.53 L40.12 -43.53 L40.12 -17.54 Q40.12 -11.72 37.64 -7.69 Q35.16 -3.66 30.97 -1.61 Q26.79 0.44 21.64 0.44 Q16.49 0.44 12.43 -1.58 Q8.37 -3.59 6.02 -7.65 Q3.66 -11.72 3.66 -17.54 L3.66 -43.53 L14.26 -43.53 Z M68.64 -34.97 Q74.71 -34.97 78.33 -31.03 Q81.97 -27.10 81.97 -20.21 L81.97 -0.00 L71.43 -0.00 L71.43 -18.78 Q71.43 -22.26 69.62 -24.18 Q67.83 -26.10 64.79 -26.10 Q61.75 -26.10 59.95 -24.18 Q58.15 -22.26 58.15 -18.78 L58.15 -0.00 L47.56 -0.00 L47.56 -34.59 L58.15 -34.59 L58.15 -30.01 Q59.77 -32.30 62.49 -33.63 Q65.23 -34.97 68.64 -34.97 Z M87.23 -17.30 Q87.23 -22.69 89.43 -26.72 Q91.64 -30.75 95.57 -32.92 Q99.51 -35.09 104.59 -35.09 Q111.10 -35.09 115.47 -31.68 Q119.85 -28.27 121.21 -22.07 L109.93 -22.07 Q108.50 -26.04 104.41 -26.04 Q101.49 -26.04 99.76 -23.77 Q98.02 -21.52 98.02 -17.30 Q98.02 -13.08 99.76 -10.81 Q101.49 -8.55 104.41 -8.55 Q108.50 -8.55 109.93 -12.53 L121.21 -12.53 Q119.85 -6.45 115.44 -2.97 Q111.04 0.49 104.59 0.49 Q99.51 0.49 95.57 -1.68 Q91.64 -3.85 89.43 -7.88 Q87.23 -11.91 87.23 -17.30 Z M148.12 -34.97 Q154.07 -34.97 157.66 -31.03 Q161.26 -27.10 161.26 -20.21 L161.26 -0.00 L150.72 -0.00 L150.72 -18.78 Q150.72 -22.26 148.92 -24.18 Q147.13 -26.10 144.09 -26.10 Q141.05 -26.10 139.24 -24.18 Q137.45 -22.26 137.45 -18.78 L137.45 -0.00 L126.85 -0.00 L126.85 -45.88 L137.45 -45.88 L137.45 -29.94 Q139.07 -32.24 141.86 -33.61 Q144.65 -34.97 148.12 -34.97 Z M166.53 -17.36 Q166.53 -22.69 168.55 -26.72 Q170.56 -30.75 174.03 -32.92 Q177.51 -35.09 181.79 -35.09 Q185.44 -35.09 188.20 -33.60 Q190.96 -32.11 192.44 -29.70 L192.44 -34.59 L203.05 -34.59 L203.05 -0.00 L192.44 -0.00 L192.44 -4.90 Q190.89 -2.48 188.13 -0.99 Q185.38 0.49 181.72 0.49 Q177.51 0.49 174.03 -1.71 Q170.56 -3.90 168.55 -7.96 Q166.53 -12.03 166.53 -17.36 Z M192.44 -17.30 Q192.44 -21.26 190.25 -23.56 Q188.05 -25.86 184.89 -25.86 Q181.72 -25.86 179.52 -23.59 Q177.32 -21.33 177.32 -17.36 Q177.32 -13.39 179.52 -11.06 Q181.72 -8.74 184.89 -8.74 Q188.05 -8.74 190.25 -11.03 Q192.44 -13.33 192.44 -17.30 Z M221.34 -28.83 Q223.20 -31.68 225.99 -33.33 Q228.78 -34.97 232.19 -34.97 L232.19 -23.74 L229.27 -23.74 Q225.31 -23.74 223.32 -22.04 Q221.34 -20.33 221.34 -16.06 L221.34 -0.00 L210.74 -0.00 L210.74 -34.59 L221.34 -34.59 L221.34 -28.83 Z M256.55 -8.99 L256.55 -0.00 L251.16 -0.00 Q245.39 -0.00 242.17 -2.82 Q238.95 -5.64 238.95 -12.03 L238.95 -25.79 L234.73 -25.79 L234.73 -34.59 L238.95 -34.59 L238.95 -43.03 L249.55 -43.03 L249.55 -34.59 L256.50 -34.59 L256.50 -25.79 L249.55 -25.79 L249.55 -11.91 Q249.55 -10.36 250.30 -9.67 Q251.04 -8.99 252.78 -8.99 L256.55 -8.99 Z M295.06 -17.85 Q295.06 -16.37 294.87 -14.75 L270.88 -14.75 Q271.13 -11.53 272.95 -9.82 Q274.78 -8.12 277.45 -8.12 Q281.42 -8.12 282.97 -11.47 L294.25 -11.47 Q293.38 -8.06 291.11 -5.33 Q288.86 -2.61 285.45 -1.06 Q282.04 0.49 277.82 0.49 Q272.74 0.49 268.76 -1.68 Q264.80 -3.85 262.56 -7.88 Q260.34 -11.91 260.34 -17.30 Q260.34 -22.69 262.54 -26.72 Q264.74 -30.75 268.71 -32.92 Q272.68 -35.09 277.82 -35.09 Q282.84 -35.09 286.74 -32.98 Q290.66 -30.87 292.86 -26.97 Q295.06 -23.07 295.06 -17.85 Z M284.21 -20.64 Q284.21 -23.38 282.35 -24.98 Q280.49 -26.60 277.70 -26.60 Q275.03 -26.60 273.20 -25.05 Q271.37 -23.50 270.94 -20.64 L284.21 -20.64 Z M298.53 -17.36 Q298.53 -22.69 300.54 -26.72 Q302.56 -30.75 306.03 -32.92 Q309.50 -35.09 313.79 -35.09 Q317.20 -35.09 320.01 -33.66 Q322.83 -32.24 324.44 -29.82 L324.44 -45.88 L335.05 -45.88 L335.05 -0.00 L324.44 -0.00 L324.44 -4.96 Q322.96 -2.48 320.20 -0.99 Q317.44 0.49 313.79 0.49 Q309.50 0.49 306.03 -1.71 Q302.56 -3.90 300.54 -7.96 Q298.53 -12.03 298.53 -17.36 Z M324.44 -17.30 Q324.44 -21.26 322.24 -23.56 Q320.04 -25.86 316.89 -25.86 Q313.72 -25.86 311.52 -23.59 Q309.32 -21.33 309.32 -17.36 Q309.32 -13.39 311.52 -11.06 Q313.72 -8.74 316.89 -8.74 Q320.04 -8.74 322.24 -11.03 Q324.44 -13.33 324.44 -17.30 Z"/></g></svg>