<svg width="100%" viewBox="-3 -6 132 98" xmlns="http://www.w3.org/2000/svg" role="img"><title>HU</title><path d="M0.00,4.00 Q0.00,0.00 4.00,0.00 L15.00,0.00 Q19.00,0.00 19.00,4.00 L19.00,23.00 Q19.00,27.00 15.70,29.26 L3.30,37.74 Q0.00,40.00 0.00,36.00 Z" fill="#1B5FA8"/><path d="M0.00,50.00 Q0.00,46.00 3.38,43.86 L15.62,36.14 Q19.00,34.00 23.00,34.00 L46.00,34.00 Q50.00,34.00 50.00,38.00 L50.00,49.00 Q50.00,53.00 46.00,53.00 L23.00,53.00 Q19.00,53.00 19.00,57.00 L19.00,80.00 Q19.00,84.00 15.00,84.00 L4.00,84.00 Q0.00,84.00 0.00,80.00 Z" fill="#1B5FA8"/><path d="M57,1.5 Q57,-2.5 61,-2.5 L72,-2.5 Q76,-2.5 76,1.5 L76,52.5 Q76,67.5 91,67.5 Q106,67.5 106,52.5 L106,1.5 Q106,-2.5 110,-2.5 L121,-2.5 Q125,-2.5 125,1.5 L125,52.5 Q125,86.5 91,86.5 Q57,86.5 57,52.5 Z" fill="#4ECDC4"/></svg>