<svg width="100%" viewBox="0 0 581 250" xmlns="http://www.w3.org/2000/svg" role="img"><title>Healthcare Uncharted wordmark</title>
<g fill="#1B5FA8" transform="translate(20,110)"><path d="M64.32 -67.39 L64.32 -0.00 L47.91 -0.00 L47.91 -27.75 L22.36 -27.75 L22.36 -0.00 L5.96 -0.00 L5.96 -67.39 L22.36 -67.39 L22.36 -40.99 L47.91 -40.99 L47.91 -67.39 L64.32 -67.39 Z M126.62 -27.64 Q126.62 -25.35 126.34 -22.84 L89.18 -22.84 Q89.57 -17.85 92.39 -15.21 Q95.23 -12.57 99.37 -12.57 Q105.50 -12.57 107.90 -17.76 L125.38 -17.76 Q124.03 -12.48 120.52 -8.25 Q117.02 -4.04 111.74 -1.64 Q106.46 0.77 99.94 0.77 Q92.06 0.77 85.91 -2.59 Q79.78 -5.96 76.31 -12.20 Q72.86 -18.43 72.86 -26.79 Q72.86 -35.13 76.27 -41.37 Q79.69 -47.61 85.82 -50.97 Q91.97 -54.33 99.94 -54.33 Q107.71 -54.33 113.75 -51.06 Q119.81 -47.80 123.22 -41.76 Q126.62 -35.71 126.62 -27.64 Z M109.82 -31.96 Q109.82 -36.20 106.94 -38.68 Q104.06 -41.19 99.74 -41.19 Q95.62 -41.19 92.78 -38.79 Q89.95 -36.39 89.29 -31.96 L109.82 -31.96 Z M132.00 -26.88 Q132.00 -35.13 135.12 -41.37 Q138.24 -47.61 143.61 -50.97 Q148.99 -54.33 155.62 -54.33 Q161.28 -54.33 165.55 -52.02 Q169.83 -49.73 172.12 -45.99 L172.12 -53.56 L188.55 -53.56 L188.55 -0.00 L172.12 -0.00 L172.12 -7.59 Q169.72 -3.84 165.45 -1.53 Q161.19 0.77 155.52 0.77 Q148.99 0.77 143.61 -2.64 Q138.24 -6.04 135.12 -12.33 Q132.00 -18.63 132.00 -26.88 Z M172.12 -26.79 Q172.12 -32.92 168.72 -36.48 Q165.31 -40.03 160.42 -40.03 Q155.52 -40.03 152.11 -36.52 Q148.71 -33.03 148.71 -26.88 Q148.71 -20.73 152.11 -17.13 Q155.52 -13.53 160.42 -13.53 Q165.31 -13.53 168.72 -17.09 Q172.12 -20.64 172.12 -26.79 Z M216.86 -71.04 L216.86 -0.00 L200.45 -0.00 L200.45 -71.04 L216.86 -71.04 Z M258.62 -13.92 L258.62 -0.00 L250.27 -0.00 Q241.34 -0.00 236.35 -4.37 Q231.37 -8.73 231.37 -18.63 L231.37 -39.93 L224.83 -39.93 L224.83 -53.56 L231.37 -53.56 L231.37 -66.63 L247.78 -66.63 L247.78 -53.56 L258.53 -53.56 L258.53 -39.93 L247.78 -39.93 L247.78 -18.43 Q247.78 -16.04 248.93 -14.97 Q250.09 -13.92 252.77 -13.92 L258.62 -13.92 Z M300.67 -54.15 Q309.88 -54.15 315.45 -48.05 Q321.03 -41.95 321.03 -31.29 L321.03 -0.00 L304.71 -0.00 L304.71 -29.08 Q304.71 -34.47 301.92 -37.44 Q299.14 -40.41 294.43 -40.41 Q289.72 -40.41 286.93 -37.44 Q284.16 -34.47 284.16 -29.08 L284.16 -0.00 L267.75 -0.00 L267.75 -71.04 L284.16 -71.04 L284.16 -46.36 Q286.66 -49.92 290.98 -52.03 Q295.30 -54.15 300.67 -54.15 Z M329.18 -26.79 Q329.18 -35.13 332.59 -41.37 Q336.01 -47.61 342.10 -50.97 Q348.19 -54.33 356.06 -54.33 Q366.14 -54.33 372.91 -49.05 Q379.69 -43.77 381.79 -34.17 L364.33 -34.17 Q362.11 -40.32 355.78 -40.32 Q351.26 -40.32 348.58 -36.81 Q345.89 -33.31 345.89 -26.79 Q345.89 -20.25 348.58 -16.74 Q351.26 -13.24 355.78 -13.24 Q362.11 -13.24 364.33 -19.39 L381.79 -19.39 Q379.69 -9.99 372.86 -4.60 Q366.05 0.77 356.06 0.77 Q348.19 0.77 342.10 -2.59 Q336.01 -5.96 332.59 -12.20 Q329.18 -18.43 329.18 -26.79 Z M387.26 -26.88 Q387.26 -35.13 390.38 -41.37 Q393.50 -47.61 398.87 -50.97 Q404.26 -54.33 410.89 -54.33 Q416.54 -54.33 420.82 -52.02 Q425.09 -49.73 427.39 -45.99 L427.39 -53.56 L443.81 -53.56 L443.81 -0.00 L427.39 -0.00 L427.39 -7.59 Q424.99 -3.84 420.71 -1.53 Q416.45 0.77 410.78 0.77 Q404.26 0.77 398.87 -2.64 Q393.50 -6.04 390.38 -12.33 Q387.26 -18.63 387.26 -26.88 Z M427.39 -26.79 Q427.39 -32.92 423.98 -36.48 Q420.58 -40.03 415.69 -40.03 Q410.78 -40.03 407.38 -36.52 Q403.97 -33.03 403.97 -26.88 Q403.97 -20.73 407.38 -17.13 Q410.78 -13.53 415.69 -13.53 Q420.58 -13.53 423.98 -17.09 Q427.39 -20.64 427.39 -26.79 Z M472.12 -44.64 Q475.00 -49.05 479.32 -51.60 Q483.64 -54.15 488.92 -54.15 L488.92 -36.77 L484.41 -36.77 Q478.27 -36.77 475.20 -34.12 Q472.12 -31.48 472.12 -24.87 L472.12 -0.00 L455.71 -0.00 L455.71 -53.56 L472.12 -53.56 L472.12 -44.64 Z M547.29 -27.64 Q547.29 -25.35 547.01 -22.84 L509.85 -22.84 Q510.24 -17.85 513.06 -15.21 Q515.90 -12.57 520.04 -12.57 Q526.17 -12.57 528.57 -17.76 L546.05 -17.76 Q544.70 -12.48 541.19 -8.25 Q537.69 -4.04 532.41 -1.64 Q527.13 0.77 520.61 0.77 Q512.73 0.77 506.58 -2.59 Q500.45 -5.96 496.98 -12.20 Q493.53 -18.43 493.53 -26.79 Q493.53 -35.13 496.94 -41.37 Q500.36 -47.61 506.49 -50.97 Q512.64 -54.33 520.61 -54.33 Q528.38 -54.33 534.42 -51.06 Q540.48 -47.80 543.89 -41.76 Q547.29 -35.71 547.29 -27.64 Z M530.49 -31.96 Q530.49 -36.20 527.61 -38.68 Q524.73 -41.19 520.41 -41.19 Q516.29 -41.19 513.45 -38.79 Q510.62 -36.39 509.96 -31.96 L530.49 -31.96 Z"/></g>
<g fill="#2FA79E" transform="translate(20,218)"><path d="M22.08 -67.39 L22.08 -27.07 Q22.08 -21.03 25.05 -17.76 Q28.04 -14.49 33.80 -14.49 Q39.55 -14.49 42.61 -17.76 Q45.69 -21.03 45.69 -27.07 L45.69 -67.39 L62.11 -67.39 L62.11 -27.16 Q62.11 -18.15 58.27 -11.91 Q54.43 -5.67 47.95 -2.49 Q41.48 0.67 33.51 0.67 Q25.53 0.67 19.25 -2.44 Q12.96 -5.56 9.31 -11.85 Q5.67 -18.15 5.67 -27.16 L5.67 -67.39 L22.08 -67.39 Z M106.27 -54.15 Q115.68 -54.15 121.29 -48.05 Q126.91 -41.95 126.91 -31.29 L126.91 -0.00 L110.59 -0.00 L110.59 -29.08 Q110.59 -34.47 107.80 -37.44 Q105.03 -40.41 100.32 -40.41 Q95.61 -40.41 92.82 -37.44 Q90.04 -34.47 90.04 -29.08 L90.04 -0.00 L73.63 -0.00 L73.63 -53.56 L90.04 -53.56 L90.04 -46.47 Q92.55 -50.01 96.76 -52.08 Q100.99 -54.15 106.27 -54.15 Z M135.07 -26.79 Q135.07 -35.13 138.47 -41.37 Q141.89 -47.61 147.98 -50.97 Q154.07 -54.33 161.95 -54.33 Q172.03 -54.33 178.79 -49.05 Q185.57 -43.77 187.67 -34.17 L170.21 -34.17 Q167.99 -40.32 161.66 -40.32 Q157.15 -40.32 154.46 -36.81 Q151.78 -33.31 151.78 -26.79 Q151.78 -20.25 154.46 -16.74 Q157.15 -13.24 161.66 -13.24 Q167.99 -13.24 170.21 -19.39 L187.67 -19.39 Q185.57 -9.99 178.75 -4.60 Q171.94 0.77 161.95 0.77 Q154.07 0.77 147.98 -2.59 Q141.89 -5.96 138.47 -12.20 Q135.07 -18.43 135.07 -26.79 Z M229.34 -54.15 Q238.55 -54.15 244.12 -48.05 Q249.70 -41.95 249.70 -31.29 L249.70 -0.00 L233.38 -0.00 L233.38 -29.08 Q233.38 -34.47 230.59 -37.44 Q227.81 -40.41 223.10 -40.41 Q218.39 -40.41 215.60 -37.44 Q212.83 -34.47 212.83 -29.08 L212.83 -0.00 L196.42 -0.00 L196.42 -71.04 L212.83 -71.04 L212.83 -46.36 Q215.33 -49.92 219.65 -52.03 Q223.97 -54.15 229.34 -54.15 Z M257.85 -26.88 Q257.85 -35.13 260.97 -41.37 Q264.09 -47.61 269.46 -50.97 Q274.85 -54.33 281.48 -54.33 Q287.13 -54.33 291.41 -52.02 Q295.68 -49.73 297.98 -45.99 L297.98 -53.56 L314.40 -53.56 L314.40 -0.00 L297.98 -0.00 L297.98 -7.59 Q295.58 -3.84 291.30 -1.53 Q287.04 0.77 281.37 0.77 Q274.85 0.77 269.46 -2.64 Q264.09 -6.04 260.97 -12.33 Q257.85 -18.63 257.85 -26.88 Z M297.98 -26.79 Q297.98 -32.92 294.57 -36.48 Q291.17 -40.03 286.28 -40.03 Q281.37 -40.03 277.97 -36.52 Q274.56 -33.03 274.56 -26.88 Q274.56 -20.73 277.97 -17.13 Q281.37 -13.53 286.28 -13.53 Q291.17 -13.53 294.57 -17.09 Q297.98 -20.64 297.98 -26.79 Z M342.72 -44.64 Q345.60 -49.05 349.92 -51.60 Q354.24 -54.15 359.52 -54.15 L359.52 -36.77 L355.00 -36.77 Q348.87 -36.77 345.79 -34.12 Q342.72 -31.48 342.72 -24.87 L342.72 -0.00 L326.31 -0.00 L326.31 -53.56 L342.72 -53.56 L342.72 -44.64 Z M397.24 -13.92 L397.24 -0.00 L388.89 -0.00 Q379.96 -0.00 374.97 -4.37 Q369.99 -8.73 369.99 -18.63 L369.99 -39.93 L363.45 -39.93 L363.45 -53.56 L369.99 -53.56 L369.99 -66.63 L386.40 -66.63 L386.40 -53.56 L397.15 -53.56 L397.15 -39.93 L386.40 -39.93 L386.40 -18.43 Q386.40 -16.04 387.55 -14.97 Q388.71 -13.92 391.39 -13.92 L397.24 -13.92 Z M456.86 -27.64 Q456.86 -25.35 456.58 -22.84 L419.42 -22.84 Q419.81 -17.85 422.63 -15.21 Q425.47 -12.57 429.61 -12.57 Q435.74 -12.57 438.14 -17.76 L455.62 -17.76 Q454.27 -12.48 450.76 -8.25 Q447.26 -4.04 441.98 -1.64 Q436.70 0.77 430.18 0.77 Q422.30 0.77 416.15 -2.59 Q410.02 -5.96 406.55 -12.20 Q403.10 -18.43 403.10 -26.79 Q403.10 -35.13 406.51 -41.37 Q409.93 -47.61 416.06 -50.97 Q422.21 -54.33 430.18 -54.33 Q437.95 -54.33 443.99 -51.06 Q450.05 -47.80 453.46 -41.76 Q456.86 -35.71 456.86 -27.64 Z M440.06 -31.96 Q440.06 -36.20 437.18 -38.68 Q434.30 -41.19 429.98 -41.19 Q425.86 -41.19 423.02 -38.79 Q420.19 -36.39 419.53 -31.96 L440.06 -31.96 Z M462.24 -26.88 Q462.24 -35.13 465.36 -41.37 Q468.48 -47.61 473.85 -50.97 Q479.23 -54.33 485.86 -54.33 Q491.14 -54.33 495.51 -52.12 Q499.87 -49.92 502.36 -46.17 L502.36 -71.04 L518.79 -71.04 L518.79 -0.00 L502.36 -0.00 L502.36 -7.68 Q500.07 -3.84 495.79 -1.53 Q491.52 0.77 485.86 0.77 Q479.23 0.77 473.85 -2.64 Q468.48 -6.04 465.36 -12.33 Q462.24 -18.63 462.24 -26.88 Z M502.36 -26.79 Q502.36 -32.92 498.96 -36.48 Q495.55 -40.03 490.66 -40.03 Q485.76 -40.03 482.35 -36.52 Q478.95 -33.03 478.95 -26.88 Q478.95 -20.73 482.35 -17.13 Q485.76 -13.53 490.66 -13.53 Q495.55 -13.53 498.96 -17.09 Q502.36 -20.64 502.36 -26.79 Z"/></g></svg>